<html>
<head>
<meta charset="UTF-8">
<meta name="viewport" content="width=device-width, initial-scale=1.0"/>

<style>
.comment
{
    padding-left: 20px;
    margin-top: 4px;
    margin-right: 4px;
    margin-bottom: 4px;
    border: 2px #000 solid;
}
.submission
{
    border: 4px #00f solid;
    padding-left: 20px;
}
.hidden
{
    display: none;
}
</style>
</head>
<body><div class="submission" id="t3_55xbet">
    <p class="userinfo">
        <a href="https://www.reddit.com/u/starbuck93">starbuck93</a>
        <span class="score"> | 6 points</span>
        <span class="timestamp"> | Oct 05 2016 02:27:45</span>
    </p>
    <strong>New.Girl.S06E03.720p.HDTV.x264-FLEET.[VTV].mkv 831MB</strong>
    <p><a href="https://mega.co.nz/#!M4VDAIxY">https://mega.co.nz/#!M4VDAIxY</a></p>
    <p class="toolbar">
        <a href="https://www.reddit.com/r/megalinks/comments/55xbet">permalink</a>
    </p>
</div>
<div class="comment" id="t1_d8ehevw">
    <p class="userinfo">
        <a
        class="toggle_hide_button"
        href="javascript:void(0)"
        onclick="toggle_collapse(this.parentElement.parentElement)">[-]
        </a>
        <a href="https://www.reddit.com/u/starbuck93">starbuck93</a>
        <span class="score"> | 1 points</span>
        <span class="timestamp"> | Oct 05 2016 02:27:54</span>
    </p>
    <div class="collapsible">
        <p>Key: <code>!VXgQOyMH87bjhMYAciP8CRb_-UZ66ITcSTVpmoHOQRc</code></p>
<pre><code>Input #0, matroska,webm, from 'New.Girl.S06E03.720p.HDTV.x264-FLEET.[VTV].mkv':
Duration: 00:21:32.50, start: 0.000000, bitrate: N/A
Stream #0.0(eng): Video: h264 (High), yuv420p, 1280x720, PAR 1:1 DAR 16:9, 23.98 fps, 1k tbn, 47.95 tbc (default)
Stream #0.1(eng): Audio: ac3, 48000 Hz, 5.1, fltp, 448 kb/s (default)
</code></pre>
<h1></h1>
        <p class="toolbar">
            <a href="https://www.reddit.com/r/megalinks/comments/55xbet/_/d8ehevw">permalink</a>
        </p>
        
    </div>
</div>
</body>

<script>
function toggle_collapse(comment_div)
{
    var button = comment_div.getElementsByClassName("toggle_hide_button")[0];
    var collapsible = comment_div.getElementsByClassName("collapsible")[0];
    if (collapsible.classList.contains("hidden"))
    {
        collapsible.classList.remove("hidden");
        button.innerText = "[-]";
    }
    else
    {
        collapsible.classList.add("hidden");
        button.innerText = "[+]";
    }
}
</script>
</html>
